<?xml version="1.0" encoding="UTF-8" standalone="no"?>
<!-- Created with Inkscape (http://www.inkscape.org/) -->

<svg
   width="100mm"
   height="100mm"
   viewBox="0 0 100 99.999999"
   version="1.1"
   id="svg5"
   inkscape:version="1.1 (ce6663b3b7, 2021-05-25)"
   sodipodi:docname="EAMSsquare.svg"
   xmlns:inkscape="http://www.inkscape.org/namespaces/inkscape"
   xmlns:sodipodi="http://sodipodi.sourceforge.net/DTD/sodipodi-0.dtd"
   xmlns="http://www.w3.org/2000/svg"
   xmlns:svg="http://www.w3.org/2000/svg">
  <sodipodi:namedview
     id="namedview7"
     pagecolor="#ffffff"
     bordercolor="#666666"
     borderopacity="1.0"
     inkscape:pageshadow="2"
     inkscape:pageopacity="0.0"
     inkscape:pagecheckerboard="0"
     inkscape:document-units="mm"
     showgrid="false"
     inkscape:snap-bbox="true"
     inkscape:bbox-paths="true"
     inkscape:bbox-nodes="true"
     inkscape:snap-bbox-edge-midpoints="true"
     inkscape:snap-bbox-midpoints="true"
     inkscape:object-paths="true"
     inkscape:snap-intersection-paths="true"
     inkscape:snap-smooth-nodes="true"
     inkscape:snap-midpoints="true"
     inkscape:snap-object-midpoints="true"
     inkscape:snap-center="true"
     inkscape:snap-text-baseline="true"
     inkscape:snap-page="true"
     inkscape:zoom="0.94867184"
     inkscape:cx="737.34665"
     inkscape:cy="364.72043"
     inkscape:window-width="1920"
     inkscape:window-height="1201"
     inkscape:window-x="0"
     inkscape:window-y="0"
     inkscape:window-maximized="1"
     inkscape:current-layer="layer1"
     width="100mm"
     height="100mm" />
  <defs
     id="defs2" />
  <g
     inkscape:label="Layer 1"
     inkscape:groupmode="layer"
     id="layer1">
    <rect
       style="fill:#330080;stroke-width:0.264583"
       id="rect2875"
       width="100"
       height="100"
       x="0"
       y="0"
       inkscape:export-filename="/home/larry/Pictures/eamssquare.png"
       inkscape:export-xdpi="260.09601"
       inkscape:export-ydpi="260.09601" />
    <path
       sodipodi:type="star"
       style="fill:#ffffff"
       id="path329"
       inkscape:flatsided="false"
       sodipodi:sides="19"
       sodipodi:cx="190.98308"
       sodipodi:cy="322.97247"
       sodipodi:r1="79.287163"
       sodipodi:r2="30.129122"
       sodipodi:arg1="-1.5707963"
       sodipodi:arg2="-1.4054493"
       inkscape:rounded="1.15"
       inkscape:randomized="0"
       d="m 190.98308,243.68531 c 57.28887,0 -51.54844,40.13952 4.95909,49.56896 56.50752,9.42944 -33.39939,-63.87463 20.78541,-45.27296 54.1848,18.60167 -61.78868,21.2269 -11.40462,48.49339 50.38405,27.26649 -10.84966,-71.25849 34.3593,-36.07094 45.20897,35.18756 -65.33316,0.014 -26.53247,42.16282 38.8007,42.14879 12.8758,-70.9204 44.20984,-22.96007 31.33404,47.96032 -61.79778,-21.20039 -38.78511,31.26323 23.01268,52.46362 35.20597,-62.89696 49.26956,-7.36111 14.06358,55.53585 -51.56566,-40.1174 -46.83479,16.9758 4.73088,57.0932 53.72102,-48.05767 48.99014,9.03553 -4.73088,57.0932 -35.74559,-54.68707 -49.80917,0.84878 -14.06359,55.53584 66.41457,-28.01059 43.40189,24.45303 -23.01268,52.46361 -16.05194,-63.33055 -47.38598,-15.37023 -31.33405,47.96032 71.91107,-4.92812 33.11037,37.22067 -38.8007,42.14879 5.3812,-65.11118 -39.82777,-29.92363 -45.20897,35.18756 69.61488,18.68839 19.23082,45.95487 -50.38406,27.26649 26.2312,-59.836 -27.9536,-41.23433 -54.18481,18.60166 59.77485,40.27971 3.26732,49.70914 -56.50752,9.42944 44.23864,-48.07666 -13.05023,-48.07667 -57.28887,0 43.45728,57.50611 -13.05024,48.07667 -56.50753,-9.42944 57.45213,-31.10748 3.26733,-49.70914 -54.1848,-18.60167 22.43044,68.50082 -27.95361,41.23433 -50.38406,-27.26649 64.4398,-10.76731 19.23083,-45.95487 -45.20897,-35.18755 -1.02708,72.07242 -39.82777,29.92363 -38.8007,-42.1488 64.44441,10.73965 33.11037,-37.22067 -31.33404,-47.96032 -24.37331,67.83384 -47.38598,15.37022 -23.012677,-52.46362 57.46547,31.08282 43.40189,-24.45303 -14.06359,-55.53584 -45.0783,56.24442 -49.80918,-0.84878 -4.73087,-57.0932 44.25926,48.05768 48.99014,-9.03552 4.73088,-57.0932 -60.89837,38.56004 -46.83478,-16.97581 14.06359,-55.53584 26.25687,59.82474 49.26955,7.36112 23.01268,-52.46362 -70.11915,16.69708 -38.78511,-31.26324 31.33405,-47.96032 5.40915,65.10886 44.20984,22.96007 38.8007,-42.14879 -71.741434,-6.97526 -26.53246,-42.16281 45.20897,-35.18755 -16.02476,63.33743 34.3593,36.07094 50.38406,-27.26649 -65.58942,-29.89173 -11.40462,-48.49339 54.1848,-18.60167 -35.72212,54.7024 20.78541,45.27296 56.50752,-9.42943 -52.32978,-49.56896 4.95909,-49.56896 z"
       transform="matrix(0.47266286,0,0,0.47307377,-40.270608,-102.78113)"
       inkscape:transform-center-y="-3.5817614"
       inkscape:transform-center-x="-1.0611866e-06"
       inkscape:export-filename="/home/larry/Pictures/eams.png"
       inkscape:export-xdpi="260.09601"
       inkscape:export-ydpi="260.09601" />
  </g>
</svg>
